<mxfile host="65bd71144e">
    <diagram id="NN9cA1c5dmI8x99ABteL" name="Page-1">
        <mxGraphModel dx="986" dy="408" grid="1" gridSize="10" guides="1" tooltips="1" connect="1" arrows="1" fold="1" page="1" pageScale="1" pageWidth="850" pageHeight="1100" math="0" shadow="0">
            <root>
                <mxCell id="0"/>
                <mxCell id="1" parent="0"/>
                <mxCell id="4" value="ねこ" style="swimlane;fontStyle=0;childLayout=stackLayout;horizontal=1;startSize=26;fillColor=none;horizontalStack=0;resizeParent=1;resizeParentMax=0;resizeLast=0;collapsible=1;marginBottom=0;" vertex="1" parent="1">
                    <mxGeometry x="330" y="150" width="140" height="52" as="geometry"/>
                </mxCell>
                <mxCell id="5" value="好奇心" style="text;strokeColor=none;fillColor=none;align=left;verticalAlign=top;spacingLeft=4;spacingRight=4;overflow=hidden;rotatable=0;points=[[0,0.5],[1,0.5]];portConstraint=eastwest;" vertex="1" parent="4">
                    <mxGeometry y="26" width="140" height="26" as="geometry"/>
                </mxCell>
                <mxCell id="8" value="獲物" style="swimlane;fontStyle=0;childLayout=stackLayout;horizontal=1;startSize=26;fillColor=none;horizontalStack=0;resizeParent=1;resizeParentMax=0;resizeLast=0;collapsible=1;marginBottom=0;" vertex="1" parent="1">
                    <mxGeometry x="80" y="150" width="140" height="52" as="geometry"/>
                </mxCell>
                <mxCell id="9" value="名前" style="text;strokeColor=none;fillColor=none;align=left;verticalAlign=top;spacingLeft=4;spacingRight=4;overflow=hidden;rotatable=0;points=[[0,0.5],[1,0.5]];portConstraint=eastwest;" vertex="1" parent="8">
                    <mxGeometry y="26" width="140" height="26" as="geometry"/>
                </mxCell>
                <mxCell id="10" value="部屋" style="swimlane;fontStyle=0;childLayout=stackLayout;horizontal=1;startSize=26;fillColor=none;horizontalStack=0;resizeParent=1;resizeParentMax=0;resizeLast=0;collapsible=1;marginBottom=0;" vertex="1" parent="1">
                    <mxGeometry x="80" y="60" width="140" height="52" as="geometry"/>
                </mxCell>
                <mxCell id="11" value="名前" style="text;strokeColor=none;fillColor=none;align=left;verticalAlign=top;spacingLeft=4;spacingRight=4;overflow=hidden;rotatable=0;points=[[0,0.5],[1,0.5]];portConstraint=eastwest;" vertex="1" parent="10">
                    <mxGeometry y="26" width="140" height="26" as="geometry"/>
                </mxCell>
                <mxCell id="12" value="ねこの状態＋環境&lt;br&gt;↓&lt;br&gt;行動をするかどうか＝好奇心&lt;br&gt;↓&lt;br&gt;どういう行動をするか＝行動関数" style="shape=note;whiteSpace=wrap;html=1;backgroundOutline=1;darkOpacity=0.05;" vertex="1" parent="1">
                    <mxGeometry x="540" y="126" width="80" height="100" as="geometry"/>
                </mxCell>
                <mxCell id="13" value="ねこ脳" style="shape=folder;fontStyle=1;tabWidth=110;tabHeight=30;tabPosition=left;html=1;boundedLbl=1;labelInHeader=1;container=1;collapsible=0;" vertex="1" parent="1">
                    <mxGeometry x="30" y="320" width="750" height="450" as="geometry"/>
                </mxCell>
                <mxCell id="14" value="" style="html=1;strokeColor=none;resizeWidth=1;resizeHeight=1;fillColor=none;part=1;connectable=0;allowArrows=0;deletable=0;" vertex="1" parent="13">
                    <mxGeometry width="750" height="315" relative="1" as="geometry">
                        <mxPoint y="30" as="offset"/>
                    </mxGeometry>
                </mxCell>
                <mxCell id="15" value="«interface»&lt;br&gt;&lt;b&gt;視覚&lt;/b&gt;" style="html=1;" vertex="1" parent="13">
                    <mxGeometry x="50" y="104.65116279069768" width="110" height="52.32558139534884" as="geometry"/>
                </mxCell>
                <mxCell id="16" value="«interface»&lt;br&gt;&lt;b&gt;聴覚&lt;/b&gt;" style="html=1;" vertex="1" parent="13">
                    <mxGeometry x="50" y="177.90697674418607" width="110" height="52.32558139534884" as="geometry"/>
                </mxCell>
                <mxCell id="17" value="«interface»&lt;br&gt;&lt;b&gt;触覚&lt;/b&gt;" style="html=1;" vertex="1" parent="13">
                    <mxGeometry x="50" y="251.16279069767444" width="110" height="52.32558139534884" as="geometry"/>
                </mxCell>
                <mxCell id="18" value="«interface»&lt;br&gt;&lt;b&gt;味覚&lt;/b&gt;" style="html=1;" vertex="1" parent="13">
                    <mxGeometry x="50" y="324.4186046511628" width="110" height="52.32558139534884" as="geometry"/>
                </mxCell>
                <mxCell id="19" value="«interface»&lt;br&gt;&lt;b&gt;嗅覚&lt;/b&gt;" style="html=1;" vertex="1" parent="13">
                    <mxGeometry x="50" y="397.6744186046512" width="110" height="52.32558139534884" as="geometry"/>
                </mxCell>
                <mxCell id="20" value="ねこ内部状態" style="swimlane;fontStyle=0;childLayout=stackLayout;horizontal=1;startSize=26;fillColor=none;horizontalStack=0;resizeParent=1;resizeParentMax=0;resizeLast=0;collapsible=1;marginBottom=0;" vertex="1" parent="13">
                    <mxGeometry x="305" y="160" width="140" height="104" as="geometry"/>
                </mxCell>
                <mxCell id="21" value="喜怒哀楽" style="text;strokeColor=none;fillColor=none;align=left;verticalAlign=top;spacingLeft=4;spacingRight=4;overflow=hidden;rotatable=0;points=[[0,0.5],[1,0.5]];portConstraint=eastwest;" vertex="1" parent="20">
                    <mxGeometry y="26" width="140" height="26" as="geometry"/>
                </mxCell>
                <mxCell id="22" value="+ field: type" style="text;strokeColor=none;fillColor=none;align=left;verticalAlign=top;spacingLeft=4;spacingRight=4;overflow=hidden;rotatable=0;points=[[0,0.5],[1,0.5]];portConstraint=eastwest;" vertex="1" parent="20">
                    <mxGeometry y="52" width="140" height="26" as="geometry"/>
                </mxCell>
                <mxCell id="23" value="+ field: type" style="text;strokeColor=none;fillColor=none;align=left;verticalAlign=top;spacingLeft=4;spacingRight=4;overflow=hidden;rotatable=0;points=[[0,0.5],[1,0.5]];portConstraint=eastwest;" vertex="1" parent="20">
                    <mxGeometry y="78" width="140" height="26" as="geometry"/>
                </mxCell>
                <mxCell id="24" value="«interface»&lt;br&gt;&lt;b&gt;行動&lt;br&gt;&lt;/b&gt;" style="html=1;" vertex="1" parent="13">
                    <mxGeometry x="560" y="198.8411627906977" width="110" height="52.32558139534884" as="geometry"/>
                </mxCell>
            </root>
        </mxGraphModel>
    </diagram>
</mxfile>